OFF
868 1732 0

-2.082674e+02 -1.016538e+01 1.380229e+02
-2.073818e+02 1.837584e+01 1.072121e+02
-2.071275e+02 1.987712e+01 1.380229e+02
-2.070016e+02 1.865625e+01 7.363804e+01
-2.068723e+02 -1.372181e+01 1.072121e+02
-2.062857e+02 1.418788e+01 1.615964e+02
-2.055836e+02 -1.328319e+01 1.615964e+02
-2.039502e+02 -1.484622e+01 7.363804e+01
-2.024576e+02 4.661720e+01 1.072137e+02
-2.015434e+02 4.842184e+01 7.363630e+01
-1.998702e+02 4.520461e+01 1.380231e+02
-1.980090e+02 -3.628985e+01 1.380224e+02
-1.975555e+02 3.792448e+01 1.615965e+02
-1.940974e+02 -4.001394e+01 1.071876e+02
-1.935905e+02 1.407587e+01 4.855012e+01
-1.932637e+02 -3.564457e+01 1.615990e+02
-1.914041e+02 -4.140821e+01 7.366003e+01
-1.910399e+02 4.477094e+01 4.855005e+01
-1.904030e+02 -1.912326e+01 4.855012e+01
-1.862275e+02 6.626495e+01 1.068783e+02
-1.850435e+02 7.103798e+01 7.401936e+01
-1.848139e+02 7.021719e+01 4.856209e+01
-1.847180e+02 6.236829e+01 1.380154e+02
-1.837017e+02 1.576293e+01 1.866300e+02
-1.818018e+02 5.549734e+01 1.615992e+02
-1.817504e+02 -4.501775e+01 4.855294e+01
-1.797229e+02 -7.319798e+00 1.866295e+02
-1.765121e+02 -5.010835e+01 1.379398e+02
-1.737487e+02 3.560366e+01 1.866298e+02
-1.709915e+02 4.195483e+01 2.233113e+01
-1.703389e+02 -5.794898e+01 7.431277e+01
-1.703179e+02 1.237731e+01 2.233113e+01
-1.692834e+02 6.995519e+01 2.233116e+01
-1.678087e+02 -4.797493e+01 1.617644e+02
-1.673678e+02 -1.789734e+01 2.233113e+01
-1.669114e+02 9.288377e+01 4.863270e+01
-1.659375e+02 4.707354e+01 -3.567150e+02
-1.658186e+02 4.412836e+01 -3.878733e+02
-1.652270e+02 -1.041446e+01 -3.878733e+02
-1.643128e+02 -4.603128e+01 2.233110e+01
-1.638072e+02 -6.527818e+01 4.863660e+01
-1.635819e+02 -4.058998e+01 -3.878733e+02
-1.634987e+02 6.922092e+01 -3.878733e+02
-1.634219e+02 2.077102e+01 -3.567150e+02
-1.633174e+02 -7.902660e+00 -3.567150e+02
-1.629813e+02 -3.774173e+01 -3.567150e+02
-1.626979e+02 1.835791e+01 -3.878733e+02
-1.626198e+02 6.811050e+01 -9.801727e+00
-1.621575e+02 1.089026e+01 -9.801727e+00
-1.616903e+02 -2.379933e+01 1.870149e+02
-1.614182e+02 9.125587e+01 7.449579e+01
-1.605116e+02 8.381146e+01 1.062921e+02
-1.601784e+02 9.972778e+00 -4.269934e+01
-1.593369e+02 7.070533e+01 -3.567150e+02
-1.592742e+02 4.918812e+01 1.866381e+02
-1.592735e+02 6.282676e+01 -4.269934e+01
-1.588945e+02 9.436543e+01 2.233057e+01
-1.582376e+02 4.102369e+01 -3.251905e+02
-1.579904e+02 1.500929e+01 -3.251905e+02
-1.579660e+02 1.355395e+01 1.966600e+02
-1.579077e+02 6.968640e+01 1.617334e+02
-1.569987e+02 -1.725377e+01 -9.801727e+00
-1.564068e+02 -1.667363e+01 -4.269934e+01
-1.557797e+02 4.029672e+01 -4.194977e+02
-1.545438e+02 1.522713e+01 -4.194977e+02
-1.544998e+02 -7.239677e+01 2.233045e+01
-1.542314e+02 9.074982e+01 -9.801736e+00
-1.535961e+02 7.976803e+01 1.376453e+02
-1.526133e+02 -4.299504e+01 -9.801727e+00
-1.519346e+02 6.422483e+01 -3.251905e+02
-1.513163e+02 6.417033e+01 -4.194977e+02
-1.513083e+02 -6.130423e+01 -3.567150e+02
-1.513020e+02 -4.077354e+01 -3.251905e+02
-1.511264e+02 5.488537e+01 -7.497551e+01
-1.510319e+02 -6.620880e+00 1.966620e+02
-1.507741e+02 -6.389539e+01 -3.878733e+02
-1.506161e+02 -1.286260e+01 -4.194977e+02
-1.505362e+02 -2.520947e+00 -1.073246e+02
-1.501665e+02 -4.028659e+01 -4.269934e+01
-1.497877e+02 9.162785e+00 -2.930468e+02
-1.493328e+02 -9.310675e+00 -1.668543e+02
-1.479596e+02 3.458422e+01 -2.930468e+02
-1.476078e+02 8.391734e+01 -4.269934e+01
-1.467078e+02 -8.137849e+01 7.451127e+01
-1.458705e+02 3.444850e+00 -2.314519e+02
-1.451591e+02 -1.821760e+01 -2.930468e+02
-1.447746e+02 -6.973923e+01 -9.801738e+00
-1.447611e+02 2.778525e+01 -2.314519e+02
-1.441313e+02 -7.629682e+01 1.061951e+02
-1.439339e+02 8.562791e+01 -3.878733e+02
-1.434184e+02 3.636024e+00 -2.617037e+02
-1.433021e+02 -3.707194e+01 -4.194977e+02
-1.432211e+02 4.430674e+01 -1.073246e+02
-1.423663e+02 -5.207517e+01 -1.073246e+02
-1.422879e+02 8.640808e+01 -3.567150e+02
-1.418676e+02 -6.422888e+01 1.375568e+02
-1.416378e+02 5.768984e+01 -2.930468e+02
-1.415509e+02 2.865746e+01 -2.617037e+02
-1.409997e+02 -8.744234e+01 4.866202e+01
-1.395824e+02 -2.210931e+01 -2.314519e+02
-1.386921e+02 8.185455e+01 -4.194977e+02
-1.386263e+02 7.352808e+01 -7.497550e+01
-1.384552e+02 -4.430293e+01 -2.930468e+02
-1.383256e+02 -2.287185e+01 -2.617037e+02
-1.383229e+02 -6.307868e+01 -4.269934e+01
-1.378815e+02 8.192393e+01 -3.251905e+02
-1.372663e+02 4.902147e+01 -2.314519e+02
-1.369550e+02 -5.785388e+01 -1.668543e+02
-1.366545e+02 3.511991e+01 -1.668544e+02
-1.364279e+02 -6.079492e+01 -3.251905e+02
-1.356369e+02 5.149015e+01 -2.617037e+02
-1.347247e+02 -9.252198e+01 2.233025e+01
-1.336047e+02 1.011465e+02 4.866187e+01
-1.331647e+02 -1.943416e+01 1.979659e+02
-1.319551e+02 -4.669402e+01 -2.314519e+02
-1.315022e+02 6.263099e+01 -1.073260e+02
-1.313479e+02 -5.798812e+01 -4.194977e+02
-1.310240e+02 9.934476e+01 7.450994e+01
-1.307357e+02 -8.013574e+01 -3.878733e+02
-1.303678e+02 1.019609e+02 2.233025e+01
-1.300752e+02 -7.574155e+01 -3.567150e+02
-1.299221e+02 6.150294e+01 1.871456e+02
-1.297708e+02 5.796231e+01 -4.390112e+02
-1.296657e+02 -9.200945e+01 -9.801724e+00
-1.293141e+02 9.547159e+01 1.061925e+02
-1.291899e+02 9.885831e+01 -9.801742e+00
-1.290097e+02 7.617929e+01 -2.930468e+02
-1.283267e+02 -4.664360e+01 -2.617037e+02
-1.258953e+02 -3.383105e+01 1.879613e+02
-1.252352e+02 -8.748239e+01 -4.269929e+01
-1.241228e+02 9.328622e+01 -4.269934e+01
-1.233757e+02 -5.463184e+01 1.626947e+02
-1.231444e+02 -6.784538e+01 -2.314519e+02
-1.222207e+02 9.075102e+00 2.075397e+02
-1.218530e+02 -6.316136e+01 -2.930468e+02
-1.210254e+02 -8.774049e+01 -7.497850e+01
-1.208203e+02 7.572799e+01 -4.390112e+02
-1.198748e+02 8.970802e+01 1.376214e+02
-1.196938e+02 9.372974e+01 -3.878733e+02
-1.194337e+02 9.501524e+01 -3.567150e+02
-1.173552e+02 8.549294e+01 -7.497551e+01
-1.170327e+02 -9.272738e+01 -1.073308e+02
-1.167620e+02 9.266412e+01 -3.251905e+02
-1.155991e+02 -9.559093e+01 7.450957e+01
-1.153554e+02 -7.415260e+01 -4.194977e+02
-1.150613e+02 -6.715290e+01 -2.617037e+02
-1.140129e+02 8.219297e+01 1.627070e+02
-1.139658e+02 9.133331e+01 -4.194977e+02
-1.134506e+02 -7.803710e+00 2.075658e+02
-1.134021e+02 -7.394749e+01 -3.251905e+02
-1.133328e+02 7.854329e+01 -1.073249e+02
-1.123143e+02 -8.857268e+01 1.061934e+02
-1.112369e+02 3.924113e+01 2.075532e+02
-1.096185e+02 -8.633765e+01 -2.314501e+02
-1.093316e+02 8.918350e+01 -2.930468e+02
-1.089289e+02 -9.512038e+01 -1.668454e+02
-1.085462e+02 -1.086739e+02 2.233027e+01
-1.081017e+02 7.051113e+01 -1.668566e+02
-1.079317e+02 -7.527342e+01 1.376916e+02
-1.068004e+02 -1.115009e+02 -9.801693e+00
-1.059109e+02 1.504173e+01 -4.578831e+02
-1.057300e+02 3.401591e+01 -4.578831e+02
-1.054937e+02 -1.094848e+02 -4.269935e+01
-1.049013e+02 8.881340e+01 -4.390112e+02
-1.039693e+02 7.937925e+01 -2.314519e+02
-1.031565e+02 5.148962e+01 -4.578831e+02
-1.029556e+02 -5.472074e+00 -4.578831e+02
-1.022116e+02 -7.909717e+01 -2.930468e+02
-1.018757e+02 -8.604935e+01 -2.617033e+02
-1.014603e+02 -1.101731e+02 -7.497711e+01
-1.011392e+02 -9.025426e+01 -3.878730e+02
-9.960803e+01 -6.515424e+01 -4.390112e+02
-9.911739e+01 -8.555727e+01 -3.567147e+02
-9.847562e+01 -1.723168e+01 2.096742e+02
-9.777311e+01 7.238434e+01 1.879372e+02
-9.760297e+01 6.738254e+01 -4.578831e+02
-9.707633e+01 -2.425996e+01 -4.578831e+02
-9.699784e+01 -1.139973e+02 -1.073246e+02
-9.584963e+01 -4.154817e+01 1.893530e+02
-9.207919e+01 9.008902e+01 1.376465e+02
-9.167777e+01 -5.926127e+01 1.639236e+02
-9.032146e+01 -1.050194e+02 -2.314369e+02
-9.004993e+01 -8.709513e+01 -4.194974e+02
-8.976147e+01 -4.001987e+01 -4.578831e+02
-8.787907e+01 -1.033405e+02 7.450951e+01
-8.753305e+01 8.213164e+01 -4.578831e+02
-8.619369e+01 8.584830e+01 1.628446e+02
-8.498627e+01 -1.057326e+02 -2.617016e+02
-8.473728e+01 7.901460e+00 2.224955e+02
-8.455874e+01 -9.150151e+01 1.062019e+02
-8.226320e+01 -1.188958e+02 2.233025e+01
-8.118532e+01 -1.230184e+02 -9.801737e+00
-8.094695e+01 -9.564172e+01 -2.930475e+02
-8.093190e+01 -1.227961e+02 -4.269935e+01
-8.078776e+01 -6.339023e+00 2.225928e+02
-8.062525e+01 -7.528233e+01 1.381979e+02
-8.024723e+01 -5.428615e+01 -4.578831e+02
-7.991555e+01 -7.884065e+01 -4.390110e+02
-7.892653e+01 5.728377e+01 2.091302e+02
-7.829685e+01 -1.260364e+02 -7.497571e+01
-7.826541e+01 1.475512e+01 -4.808665e+02
-7.803748e+01 3.027506e+01 -4.808665e+02
-7.670707e+01 4.522470e+01 -4.808665e+02
-7.662480e+01 -2.721930e+00 -4.808665e+02
-7.481537e+01 7.670496e+01 1.882572e+02
-7.461755e+01 -1.307201e+02 -1.073243e+02
-7.391189e+01 -5.005012e+01 1.921058e+02
-7.390171e+01 5.886257e+01 -4.808665e+02
-7.355652e+01 9.709174e+01 1.061931e+02
-7.283699e+01 -1.886776e+01 -4.808665e+02
-7.281825e+01 9.943335e+01 2.233025e+01
-7.275980e+01 9.853597e+01 7.450951e+01
-7.250015e+01 9.080904e+01 -4.578831e+02
-7.133138e+01 9.683387e+01 -3.567150e+02
-7.119154e+01 1.018004e+02 -4.269934e+01
-7.108782e+01 -1.606847e+01 2.235586e+02
-7.107127e+01 -1.207372e+02 -2.314206e+02
-6.999448e+01 -8.791338e+01 -3.878672e+02
-6.998277e+01 -1.249308e+02 -1.991686e+02
-6.884510e+01 -8.671789e+01 -3.567409e+02
-6.862497e+01 -1.322949e+02 -1.667881e+02
-6.836551e+01 -6.469769e+01 1.653701e+02
-6.823967e+01 7.174590e+01 -4.808665e+02
-6.785307e+01 -3.237055e+01 -4.808665e+02
-6.772060e+01 9.639048e+01 -4.194977e+02
-6.751202e+01 1.022732e+02 -7.497551e+01
-6.705316e+01 9.152011e+01 1.376469e+02
-6.626525e+01 1.007567e+02 -1.073246e+02
-6.574118e+01 -6.793216e+01 -4.578830e+02
-6.557454e+01 -1.206979e+02 -2.617047e+02
-6.511775e+01 -3.603589e+01 2.123020e+02
-6.428985e+01 1.731489e+01 2.332127e+02
-6.356927e+01 9.443867e+01 -1.668543e+02
-6.341804e+01 -8.615630e+01 -4.194935e+02
-6.313745e+01 9.813957e+01 -1.370754e+02
-6.286873e+01 8.792135e+01 1.628470e+02
-6.267174e+01 9.745612e+01 -2.930468e+02
-6.266109e+01 6.474244e+00 2.331715e+02
-6.250711e+01 2.690067e+01 2.332514e+02
-6.214727e+01 -1.110181e+02 -2.930983e+02
-6.161027e+01 1.435960e+01 -5.049415e+02
-6.158070e+01 6.660956e+00 -5.049415e+02
-6.152982e+01 -5.625907e+00 2.332589e+02
-6.144567e+01 2.122033e+01 -5.049415e+02
-6.124860e+01 2.796705e+01 -5.049415e+02
-6.112511e+01 -1.078537e+00 -5.049415e+02
-6.102069e+01 3.463202e+01 -5.049415e+02
-6.101540e+01 -4.529576e+01 -4.808665e+02
-6.068418e+01 4.097314e+01 -5.049415e+02
-6.021709e+01 -8.384902e+00 -5.049415e+02
-6.015840e+01 4.705895e+01 -5.049415e+02
-5.967714e+01 8.971443e+01 -1.992712e+02
-5.935075e+01 5.324707e+01 -5.049415e+02
-5.882951e+01 -1.549189e+01 -5.049415e+02
-5.861720e+01 8.220759e+01 -4.808665e+02
-5.808912e+01 5.953138e+01 -5.049415e+02
-5.798014e+01 -8.154269e+01 -4.390093e+02
-5.721027e+01 9.142666e+01 -2.617037e+02
-5.713221e+01 -2.182319e+01 -5.049415e+02
-5.691368e+01 3.427967e+01 2.333249e+02
-5.584317e+01 6.514514e+01 -5.049415e+02
-5.572961e+01 9.367478e+01 -4.578831e+02
-5.561692e+01 -1.599624e+01 2.333007e+02
-5.504844e+01 -2.781069e+01 -5.049415e+02
-5.497905e+01 8.770786e+01 -2.314519e+02
-5.376879e+01 7.756134e+01 1.884458e+02
-5.355427e+01 -6.188134e+01 1.927205e+02
-5.258125e+01 -3.354526e+01 -5.049415e+02
-5.200156e+01 7.090827e+00 -5.281156e+02
-5.196421e+01 6.957024e+01 -5.049415e+02
-5.192679e+01 1.354411e+01 -5.281156e+02
-5.170263e+01 1.925229e+01 -5.281156e+02
-5.169062e+01 8.626494e-01 -5.281156e+02
-5.149858e+01 2.470635e+01 -5.281156e+02
-5.131287e+01 2.990470e+01 -5.281156e+02
-5.115389e+01 -5.821376e+01 -4.808665e+02
-5.105291e+01 3.496132e+01 -5.281156e+02
-5.097790e+01 -4.380483e+00 -5.281156e+02
-5.064534e+01 3.986255e+01 -5.281156e+02
-4.997900e+01 4.481956e+01 -5.281156e+02
-4.962922e+01 -1.026494e+01 -5.281156e+02
-4.960431e+01 -3.924796e+01 -5.049415e+02
-4.940476e+01 -7.341074e+01 -4.578827e+02
-4.886518e+01 5.014621e+01 -5.281156e+02
-4.885144e+01 4.009344e+01 2.334076e+02
-4.832635e+01 -2.383256e+01 2.332649e+02
-4.793664e+01 -1.572944e+01 -5.281156e+02
-4.740950e+01 7.246832e+01 -5.049415e+02
-4.714400e+01 5.542073e+01 -5.281156e+02
-4.703678e+01 -1.357528e+02 -2.314402e+02
-4.648919e+01 8.828410e+01 -4.808665e+02
-4.631639e+01 6.413580e+01 2.117508e+02
-4.599331e+01 -2.032164e+01 -5.281156e+02
-4.566375e+01 -1.391962e+02 -1.992533e+02
-4.563000e+01 -4.571317e+01 -5.049415e+02
-4.455543e+01 6.011174e+01 -5.281156e+02
-4.378543e+01 -2.444452e+01 -5.281156e+02
-4.376139e+01 -1.437773e+02 -1.668536e+02
-4.283435e+01 7.511286e+01 -5.049415e+02
-4.221163e+01 9.771025e+01 1.061931e+02
-4.183210e+01 -1.342224e+02 -2.617099e+02
-4.154535e+01 -5.143955e+01 -5.049415e+02
-4.147301e+01 -3.131282e+01 2.331991e+02
-4.136659e+01 6.331415e+01 -5.281156e+02
-4.099299e+01 -2.877286e+01 -5.281156e+02
-4.025783e+01 9.824912e+01 7.450951e+01
-4.000114e+01 -1.265898e+02 -2.931500e+02
-3.999952e+01 1.041464e+02 -4.269934e+01
-3.954270e+01 -6.603025e+01 -4.808665e+02
-3.910638e+01 7.866903e+00 -5.351655e+02
-3.903597e+01 1.227620e+01 -5.351655e+02
-3.890014e+01 3.689450e+00 -5.351655e+02
-3.886026e+01 1.615269e+01 -5.351655e+02
-3.870861e+01 1.980504e+01 -5.351655e+02
-3.857888e+01 2.322699e+01 -5.351655e+02
-3.841927e+01 4.154255e-01 -5.351655e+02
-3.839898e+01 2.660538e+01 -5.351655e+02
-3.813832e+01 7.791631e+01 -5.049415e+02
-3.811940e+01 2.988725e+01 -5.351655e+02
-3.791949e+01 9.281391e+01 1.376470e+02
-3.765590e+01 3.317651e+01 -5.351655e+02
-3.761147e+01 6.493086e+01 -5.281156e+02
-3.749362e+01 9.812105e+01 -4.578831e+02
-3.743106e+01 -3.577709e+00 -5.351655e+02
-3.727330e+01 -6.137356e+01 2.128049e+02
-3.718521e+01 -3.386169e+01 -5.281156e+02
-3.715467e+01 -5.648471e+01 -5.049416e+02
-3.686391e+01 1.045699e+02 -7.497551e+01
-3.686189e+01 3.680689e+01 -5.351655e+02
-3.624142e+01 1.041779e+02 -1.073246e+02
-3.618516e+01 -7.362906e+00 -5.351655e+02
-3.567124e+01 4.051833e+01 -5.351655e+02
-3.479798e+01 -1.034918e+01 -5.351655e+02
-3.438234e+01 9.812067e+01 -2.930468e+02
-3.402239e+01 4.392548e+01 -5.351655e+02
-3.395072e+01 9.560707e+01 -1.668543e+02
-3.351785e+01 1.004487e+02 -1.370754e+02
-3.348813e+01 -3.806229e+01 -5.281156e+02
-3.334124e+01 6.547001e+01 -5.281156e+02
-3.325196e+01 -1.294191e+01 -5.351655e+02
-3.268570e+01 -8.017546e+01 -4.578822e+02
-3.260867e+01 -4.097616e+01 2.333173e+02
-3.214799e+01 4.657346e+01 -5.351655e+02
-3.213239e+01 1.001588e+01 2.443036e+02
-3.201558e+01 -5.958663e+01 -5.049415e+02
-3.175366e+01 7.928640e+01 -5.049415e+02
-3.174075e+01 4.661755e+00 2.442590e+02
-3.124993e+01 -1.576324e+01 -5.351655e+02
-3.081540e+01 8.966085e+01 -4.808665e+02
-3.060657e+01 4.604342e+01 2.334319e+02
-3.014231e+01 8.967089e+01 -1.992712e+02
-2.999591e+01 4.864840e+01 -5.351655e+02
-2.974449e+01 1.418278e+01 2.443444e+02
-2.964456e+01 8.703561e+01 -2.617037e+02
-2.942021e+01 -4.207916e+01 -5.281156e+02
-2.906835e+01 -3.303838e-01 2.442191e+02
-2.849749e+01 -1.913683e+01 -5.351655e+02
-2.812503e+01 6.597923e+01 -5.281156e+02
-2.735693e+01 5.013779e+01 -5.351655e+02
-2.716742e+01 -6.111322e+00 2.442332e+02
-2.679606e+01 -7.228057e+01 -4.808666e+02
-2.669416e+01 -1.235944e+01 2.442087e+02
-2.660998e+01 -1.036353e+02 7.450937e+01
-2.651530e+01 8.480402e+01 -2.314519e+02
-2.649690e+01 -6.133161e+01 -5.049415e+02
-2.618537e+01 1.756146e+01 2.443585e+02
-2.590528e+01 -2.179239e+01 -5.351655e+02
-2.516221e+01 -1.142344e+02 4.866178e+01
-2.513453e+01 7.873314e+01 -5.049415e+02
-2.484039e+01 -4.513654e+01 -5.281156e+02
-2.428294e+01 -1.236164e+02 2.233025e+01
-2.366062e+01 5.059649e+01 -5.351655e+02
-2.340682e+01 -1.350661e+02 -4.269934e+01
-2.337044e+01 -1.640418e+01 2.441926e+02
-2.321177e+01 6.634953e+01 -5.281156e+02
-2.301088e+01 -2.448172e+01 -5.351655e+02
-2.273571e+01 -1.301807e+02 -9.801741e+00
-2.271179e+01 -4.806258e+01 2.346069e+02
-2.264417e+01 -7.883385e+01 1.390363e+02
-2.177519e+01 -6.605924e+01 -5.049456e+02
-2.036459e+01 -4.694896e+01 -5.281156e+02
-2.023355e+01 -1.416556e+02 -2.314518e+02
-2.018883e+01 5.002679e+01 -5.351655e+02
-2.010749e+01 -1.459386e+02 -1.073246e+02
-1.978244e+01 -2.708471e+01 -5.351655e+02
-1.951782e+01 9.939974e+01 -4.578831e+02
-1.913028e+01 -1.461868e+02 -1.992712e+02
-1.896346e+01 -1.909559e+01 2.441823e+02
-1.849018e+01 1.017129e+02 -4.194977e+02
-1.847701e+01 7.814029e+01 -5.049415e+02
-1.825578e+01 6.640859e+01 -5.281156e+02
-1.698058e+01 4.917876e+01 -5.351655e+02
-1.697288e+01 -1.130107e+02 -3.567475e+02
-1.686041e+01 -1.491690e+02 -1.668544e+02
-1.681347e+01 -4.994304e+01 -5.281166e+02
-1.671569e+01 -2.909079e+01 -5.351655e+02
-1.582561e+01 8.926707e+01 -4.808665e+02
-1.576851e+01 -7.086887e+01 -5.049738e+02
-1.543060e+01 -1.345693e+02 -2.617881e+02
-1.445455e+01 -1.339623e+02 -2.930919e+02
-1.428637e+01 -3.079617e+01 -5.351655e+02
-1.412879e+01 -9.927859e+01 -4.194659e+02
-1.395590e+01 -2.284566e+01 2.443338e+02
-1.394654e+01 1.008331e+02 -3.567150e+02
-1.350770e+01 4.849520e+01 -5.351655e+02
-1.325611e+01 -8.635210e+01 -4.578813e+02
-1.294168e+01 6.651418e+01 -5.281156e+02
-1.270916e+01 -5.442014e+01 -5.281231e+02
-1.252515e+01 9.825317e+01 1.061931e+02
-1.242090e+01 9.887512e+00 -5.365631e+02
-1.174772e+01 -3.295385e+01 -5.351656e+02
-1.159779e+01 7.848707e+01 -5.049415e+02
-1.086472e+01 9.890379e+01 2.233025e+01
-1.022028e+01 9.112567e+01 1.376509e+02
-1.020868e+01 -7.785332e+01 -4.809007e+02
-9.875939e+00 9.840681e+01 -4.269934e+01
-9.722136e+00 9.741180e+01 7.450950e+01
-9.462983e+00 6.076504e+01 2.126590e+02
-9.401548e+00 4.831087e+01 -5.351655e+02
-9.036991e+00 -2.556543e+01 2.453676e+02
-8.879643e+00 -3.562998e+01 -5.351658e+02
-8.539495e+00 -7.323679e+01 -5.050372e+02
-8.024362e+00 7.373119e+01 1.905838e+02
-7.945317e+00 -7.669360e+01 1.927075e+02
-7.817243e+00 4.735987e+01 2.334482e+02
-7.766134e+00 9.445907e+01 -2.930468e+02
-7.618817e+00 -5.878678e+01 -5.281335e+02
-7.274013e+00 9.674625e+01 -7.497551e+01
-7.108011e+00 9.549028e+01 -1.073246e+02
-6.215378e+00 8.557592e+01 -1.668543e+02
-6.211484e+00 6.722358e+01 -5.281156e+02
-6.058271e+00 4.760860e+01 -5.351655e+02
-5.796363e+00 -3.798769e+01 -5.351658e+02
-5.245384e+00 8.957015e+01 -1.370754e+02
-4.320895e+00 7.908865e+01 -5.049415e+02
-3.636986e+00 7.794917e+01 -2.617037e+02
-2.750267e+00 7.895153e+01 -1.992712e+02
-2.730977e+00 4.613699e+01 -5.351655e+02
-2.311917e+00 -6.157035e+01 -5.281384e+02
-1.960232e+00 9.959256e+01 -4.578831e+02
-1.883331e+00 -7.379294e+01 -5.050855e+02
-1.744910e+00 -3.965604e+01 -5.351658e+02
-1.010175e+00 6.668343e+01 -5.281156e+02
-6.144243e-01 9.005385e+01 -4.808665e+02
-2.947474e-02 7.380424e+01 -2.314519e+02
2.823485e-01 -7.354691e+01 2.128289e+02
6.251220e-01 1.221069e+00 2.514896e+02
1.507631e+00 4.330717e+01 -5.351655e+02
2.041636e+00 -5.326787e+01 2.359414e+02
2.113400e+00 7.929836e+01 -5.049415e+02
2.589509e+00 -4.090979e+01 -5.351656e+02
3.399221e+00 -1.020872e+02 7.450935e+01
3.753916e+00 -6.344678e+01 -5.281326e+02
3.836939e+00 6.496214e+01 -5.281156e+02
4.265885e+00 -1.114841e+02 4.866178e+01
4.310803e+00 -1.199420e+02 2.233025e+01
4.768726e+00 -1.332459e+02 -4.270017e+01
5.105951e+00 -7.773466e+01 -4.809234e+02
5.242417e+00 -7.376094e+01 -5.050499e+02
5.292903e+00 -8.615739e+01 -4.578795e+02
5.305772e+00 3.915310e+01 -5.351655e+02
5.901202e+00 -1.280761e+02 -9.801744e+00
6.649209e+00 -4.193627e+01 -5.351655e+02
7.365938e+00 3.478636e+01 -5.351655e+02
8.162848e+00 7.910952e+01 -5.049415e+02
8.450837e+00 3.104571e+01 -5.351655e+02
9.528733e+00 6.144604e+01 -5.281156e+02
9.962330e+00 2.812773e+01 -5.351655e+02
9.964736e+00 -6.485020e+01 -5.281229e+02
1.094572e+01 -4.249940e+01 -5.351655e+02
1.235429e+01 2.598006e+01 -5.351655e+02
1.274962e+01 -7.351376e+01 -5.049822e+02
1.353693e+01 8.957732e+01 -4.808665e+02
1.440582e+01 4.671767e+01 2.334565e+02
1.471107e+01 -4.222269e+01 -5.351655e+02
1.477019e+01 7.836713e+01 -5.049415e+02
1.481492e+01 9.807882e+01 -4.578831e+02
1.488773e+01 5.643736e+01 -5.281156e+02
1.580061e+01 -6.580209e+01 -5.281172e+02
1.600234e+01 2.385528e+01 -5.351655e+02
1.654672e+01 9.777597e+01 1.061931e+02
1.683922e+01 9.426113e+01 1.376485e+02
1.836543e+01 5.152013e+01 -5.281156e+02
1.837005e+01 9.774496e+01 -2.930468e+02
1.844474e+01 -3.958720e+01 -5.351655e+02
1.938505e+01 1.013329e+02 -4.269934e+01
2.009211e+01 2.178319e+01 -5.351655e+02
2.014701e+01 -7.291191e+01 -5.049479e+02
2.025844e+01 9.910191e+01 7.450950e+01
2.068838e+01 4.791832e+01 -5.281156e+02
2.103325e+01 9.673061e+01 -1.073246e+02
2.115734e+01 9.018627e+01 -1.668543e+02
2.140268e+01 -7.590226e+01 -4.808662e+02
2.143133e+01 1.004221e+02 -7.497551e+01
2.150406e+01 7.708054e+01 -5.049415e+02
2.154972e+01 -3.608659e+01 -5.351655e+02
2.186446e+01 -6.604288e+01 -5.281156e+02
2.236193e+01 9.275780e+01 -1.370754e+02
2.244970e+01 8.436671e+01 -2.617037e+02
2.308816e+01 -3.553988e+00 -5.351655e+02
2.315312e+01 5.541056e-01 -5.351655e+02
2.318587e+01 -3.402643e+01 -5.351655e+02
2.332434e+01 -7.280596e+00 -5.351655e+02
2.342468e+01 1.959700e+01 -5.351655e+02
2.343354e+01 4.526395e+01 -5.281156e+02
2.356157e+01 4.068999e+00 -5.351655e+02
2.370028e+01 -8.376920e+01 -4.578770e+02
2.385927e+01 -1.024072e+01 -5.351655e+02
2.436042e+01 -4.371072e+01 2.332153e+02
2.441016e+01 6.412862e+01 2.121037e+02
2.446727e+01 8.873858e+01 -1.992712e+02
2.451867e+01 -3.175216e+01 -5.351655e+02
2.467488e+01 -1.421715e+01 -5.351655e+02
2.472420e+01 7.822093e+00 -5.351655e+02
2.539573e+01 1.638613e+01 -5.351655e+02
2.541989e+01 -1.888647e+01 -5.351655e+02
2.550255e+01 -2.933728e+01 -5.351655e+02
2.572227e+01 1.217161e+01 -5.351655e+02
2.588320e+01 -2.340109e+01 -5.351655e+02
2.590310e+01 -2.703715e+01 -5.351655e+02
2.688162e+01 8.422032e+01 -2.314519e+02
2.700523e+01 4.230135e+01 -5.281156e+02
2.739511e+01 -6.491704e+01 -5.281156e+02
2.740675e+01 1.018555e+02 -4.194977e+02
2.779911e+01 -7.152265e+01 -5.049405e+02
2.786435e+01 7.545908e+01 -5.049415e+02
2.851947e+01 8.790646e+01 -4.808665e+02
2.916977e+01 -9.108162e+01 -4.389691e+02
3.168903e+01 3.839983e+01 -5.281156e+02
3.190545e+01 9.429723e+01 -4.578831e+02
3.237117e+01 -5.765520e+01 2.128333e+02
3.243047e+01 -5.950511e+01 -5.281156e+02
3.247899e+01 -1.268194e+02 2.233025e+01
3.267527e+01 -1.432982e+02 -2.314519e+02
3.283989e+01 -1.082909e+02 7.450938e+01
3.302896e+01 -1.374763e+02 -4.269958e+01
3.316824e+01 -1.188537e+02 4.866178e+01
3.317929e+01 -9.620965e+01 -4.193871e+02
3.341031e+01 7.315970e+01 -5.049415e+02
3.400581e+01 -1.462628e+02 -1.073246e+02
3.423224e+01 -1.333184e+02 -9.801742e+00
3.431032e+01 -1.391566e+02 -2.617142e+02
3.431627e+01 -8.024892e+01 1.388585e+02
3.460336e+01 -6.854018e+01 -5.049415e+02
3.484864e+01 -9.300138e+01 1.062236e+02
3.547292e+01 7.709160e+01 1.885054e+02
3.563337e+01 4.531130e+01 2.334358e+02
3.575060e+01 -1.477794e+02 -1.668543e+02
3.580528e+01 -1.342600e+02 -2.930856e+02
3.603993e+01 -5.257367e+01 -5.281156e+02
3.611678e+01 -6.657095e+01 1.927795e+02
3.654795e+01 3.420070e+01 -5.281156e+02
3.737477e+01 1.021537e+02 -3.878733e+02
3.775473e+01 -4.862040e+01 -5.281156e+02
3.815393e+01 -7.090919e+01 -4.808664e+02
3.831294e+01 7.010206e+01 -5.049415e+02
3.867469e+01 -1.251259e+02 -3.253294e+02
3.885447e+01 -7.416360e+01 1.657181e+02
3.914403e+01 -6.123313e+01 -5.049415e+02
3.928280e+01 -4.500499e+01 -5.281156e+02
3.964167e+01 -1.039511e+02 -3.877047e+02
3.988427e+01 -1.146630e+02 -3.567044e+02
4.042350e+01 3.004750e+01 -5.281156e+02
4.046427e+01 1.028548e+02 -3.567150e+02
4.081678e+01 -4.153576e+01 -5.281156e+02
4.147227e+01 -4.403028e+00 -5.281156e+02
4.148624e+01 -5.292150e+01 -5.049415e+02
4.153804e+01 -9.896027e+00 -5.281156e+02
4.162923e+01 1.482661e+00 -5.281156e+02
4.175287e+01 -2.643355e+01 -5.281156e+02
4.175955e+01 -1.452686e+01 -5.281156e+02
4.179667e+01 -3.811008e+01 -5.281156e+02
4.184319e+01 -3.262998e+01 -5.281156e+02
4.187403e+01 -2.031014e+01 -5.281156e+02
4.196643e+01 -2.543768e+01 2.332202e+02
4.201061e+01 6.779618e+00 -5.281156e+02
4.276682e+01 6.690433e+01 -5.049415e+02
4.280962e+01 2.502780e+01 -5.281156e+02
4.288838e+01 1.257236e+01 -5.281156e+02
4.314878e+01 -4.836366e+01 -5.049415e+02
4.351050e+01 1.894186e+01 -5.281156e+02
4.363426e+01 -7.725641e+01 -4.578756e+02
4.375661e+01 9.660489e+01 1.376469e+02
4.418767e+01 1.010520e+02 -2.930468e+02
4.419638e+01 8.464156e+01 -4.808665e+02
4.550179e+01 9.844849e+01 1.061931e+02
4.560366e+01 -4.459166e+01 -5.049415e+02
4.634486e+01 9.433205e+01 -2.617037e+02
4.653582e+01 6.213792e+01 -5.049415e+02
4.665843e+01 -5.511385e+01 -4.808665e+02
4.794565e+01 1.001768e+02 2.233025e+01
4.804246e+01 9.921198e+01 -1.668543e+02
4.825549e+01 -4.023200e+01 -5.049415e+02
4.871946e+01 1.045591e+02 -4.269934e+01
4.896380e+01 -7.998305e+01 -4.389543e+02
4.924483e+01 1.017937e+02 -1.073246e+02
4.930883e+01 5.610846e+01 -5.049415e+02
4.971985e+01 1.008901e+02 -1.370754e+02
5.002445e+01 -3.484747e+01 -5.049415e+02
5.018306e+01 9.909890e+01 7.450951e+01
5.020827e+01 1.043187e+02 -7.497551e+01
5.104665e+01 9.949960e+01 -4.194977e+02
5.112862e+01 9.566426e+01 -1.992712e+02
5.136150e+01 4.985156e+01 -5.049415e+02
5.148136e+01 -2.790763e+01 -5.049415e+02
5.204795e+01 9.158813e+01 -2.314519e+02
5.215556e+01 9.226756e+01 -4.578831e+02
5.273632e+01 -2.059493e+01 -5.049415e+02
5.297665e+01 4.335572e+01 -5.049415e+02
5.396879e+01 -1.310050e+01 -5.049415e+02
5.417847e+01 -4.740418e+01 -4.808665e+02
5.431822e+01 7.367562e+01 -4.808665e+02
5.444661e+01 3.632824e+01 -5.049415e+02
5.463170e+01 -8.913768e+00 2.332245e+02
5.523370e+01 -5.269495e+00 -5.049415e+02
5.553926e+01 -8.129015e+01 -4.193182e+02
5.555509e+01 3.802681e+01 2.329315e+02
5.585274e+01 2.878503e+01 -5.049415e+02
5.617827e+01 1.173463e+00 -5.049415e+02
5.690647e+01 2.116836e+01 -5.049415e+02
5.690756e+01 7.807334e+00 -5.049415e+02
5.720873e+01 1.449848e+01 -5.049415e+02
5.726293e+01 -6.233746e+01 -4.578774e+02
5.939104e+01 -5.601420e+01 1.925344e+02
6.038359e+01 -3.586794e+01 -4.808665e+02
6.073861e+01 -1.370737e+02 -2.314481e+02
6.074141e+01 6.013828e+01 -4.808665e+02
6.153778e+01 -1.326926e+02 -2.617293e+02
6.185485e+01 6.562928e+01 2.115350e+02
6.208223e+01 -1.247374e+02 -2.931699e+02
6.302408e+01 -1.258738e+02 2.233025e+01
6.364408e+01 -3.444913e+01 2.122794e+02
6.427482e+01 -8.096889e+01 1.383456e+02
6.436732e+01 -1.205445e+02 4.866179e+01
6.457134e+01 -1.114947e+02 7.450945e+01
6.464593e+01 -1.929115e+01 -4.808665e+02
6.493279e+01 -1.119494e+02 -3.252852e+02
6.503452e+01 1.003803e+02 -3.878733e+02
6.557597e+01 -8.708611e+01 -3.873835e+02
6.568788e+01 4.523046e+01 -4.808665e+02
6.609666e+01 -9.507708e+01 1.062090e+02
6.668201e+01 -9.840513e+01 -3.561938e+02
6.718929e+01 -6.693620e+01 1.649862e+02
6.846316e+01 1.003483e+02 -3.567150e+02
6.852384e+01 -2.185315e+00 -4.808665e+02
6.910675e+01 8.407581e+01 -4.578831e+02
6.972632e+01 2.820772e+01 -4.808665e+02
7.037933e+01 1.283357e+01 -4.808665e+02
7.043783e+01 -6.971014e+01 -4.389697e+02
7.135701e+01 -5.666754e+01 -4.578799e+02
7.435484e+01 2.375746e+01 2.291756e+02
7.502412e+01 4.776373e+00 2.291756e+02
7.670793e+01 9.662508e+01 -4.194977e+02
7.718347e+01 1.405947e+01 2.291333e+02
8.108587e+01 7.008660e+01 -4.578831e+02
8.141447e+01 -7.550269e+01 -4.193828e+02
8.185624e+01 -4.684370e+01 1.900508e+02
8.190063e+01 -4.300091e+01 -4.578820e+02
8.261533e+01 -1.058270e+02 -2.931759e+02
8.276103e+01 -8.943246e+01 -3.251456e+02
8.329240e+01 7.807484e+01 1.884099e+02
8.461497e+01 -1.171122e+02 -2.617694e+02
8.574107e+01 -1.226177e+02 -2.314934e+02
8.892950e+01 -7.994982e+01 -3.560143e+02
8.906818e+01 -1.289644e+02 -1.666441e+02
8.958014e+01 -2.413735e+01 -4.578829e+02
8.962540e+01 5.275034e+01 -4.578831e+02
9.106339e+01 -1.325774e+02 -1.073174e+02
9.146981e+01 -6.583914e+01 -4.389949e+02
9.161621e+01 9.937209e+01 -3.878733e+02
9.222964e+01 -1.231971e+02 -4.269934e+01
9.255073e+01 -1.173493e+02 2.233025e+01
9.256826e+01 -7.833285e+01 -3.875537e+02
9.283645e+01 8.723409e+01 1.628468e+02
9.295961e+01 -8.057645e+01 1.376997e+02
9.388209e+01 -6.346274e+01 1.631226e+02
9.406356e+01 9.931475e+01 -3.251905e+02
9.420965e+01 -1.113840e+02 4.866179e+01
9.453838e+01 -1.035728e+02 7.450950e+01
9.464230e+01 -3.792041e+00 -4.578831e+02
9.465797e+01 3.258389e+01 -4.578831e+02
9.518027e+01 -9.175038e+01 1.061941e+02
9.554443e+01 5.188973e+01 2.075897e+02
9.557052e+01 1.002462e+02 -3.567150e+02
9.606674e+01 1.401653e+01 -4.578831e+02
9.738200e+01 -2.396975e+01 2.077234e+02
9.742339e+01 9.875212e+01 -2.930468e+02
9.894717e+01 2.508453e+01 2.178283e+02
9.939923e+01 9.431914e+01 -2.617037e+02
9.957445e+01 9.432789e+01 1.376469e+02
1.011295e+02 7.981824e+01 -1.668543e+02
1.013390e+02 -2.736977e-01 2.177796e+02
1.018678e+02 -4.130520e+01 1.880847e+02
1.030930e+02 9.619028e+01 -4.194977e+02
1.035800e+02 1.204735e+01 2.177753e+02
1.039159e+02 8.519256e+01 -1.073246e+02
1.052239e+02 9.854491e+01 1.061931e+02
1.060554e+02 7.206049e+01 1.880424e+02
1.064023e+02 8.119873e+01 -1.992712e+02
1.064551e+02 8.952209e+01 -7.497551e+01
1.065688e+02 9.421502e+01 -4.269934e+01
1.068164e+02 -5.110708e+01 -4.390069e+02
1.069756e+02 -7.389117e+01 -4.194675e+02
1.071385e+02 8.580958e+01 -2.314519e+02
1.072340e+02 7.992922e+01 -4.390112e+02
1.073339e+02 9.720034e+01 -9.801741e+00
1.080916e+02 9.935500e+01 2.233025e+01
1.089484e+02 1.003144e+02 4.866179e+01
1.119128e+02 9.984676e+01 7.450951e+01
1.139145e+02 4.184816e+01 2.071010e+02
1.139827e+02 -3.218917e+01 1.973135e+02
1.146466e+02 -7.949631e+01 -2.617350e+02
1.155105e+02 5.705518e+01 1.973047e+02
1.159347e+02 -7.147494e+01 -2.930515e+02
1.166263e+02 -7.408651e+01 -3.566083e+02
1.170158e+02 9.870645e+01 -3.878733e+02
1.182285e+02 -5.776850e+01 1.628490e+02
1.184882e+02 -1.723190e+01 2.070725e+02
1.185096e+02 -7.628915e+01 1.376469e+02
1.189024e+02 -2.992064e+01 -4.390108e+02
1.190303e+02 9.714555e+01 -3.251905e+02
1.192029e+02 6.062881e+01 -4.390112e+02
1.193253e+02 -9.391592e+01 7.450951e+01
1.195422e+02 8.396011e+01 1.628457e+02
1.200204e+02 -8.521040e+01 -2.314766e+02
1.206320e+02 -8.608208e+01 1.061931e+02
1.207164e+02 9.040575e+01 -2.930468e+02
1.212461e+02 9.981083e+01 -3.567150e+02
1.219759e+02 8.325898e+01 -2.617037e+02
1.221206e+02 6.526485e+01 -1.668543e+02
1.222721e+02 -7.691317e+01 -3.878321e+02
1.238648e+02 -8.808122e+01 -1.992612e+02
1.249040e+02 -9.281053e+01 -1.668336e+02
1.249203e+02 6.977950e+01 -1.073246e+02
1.254638e+02 -5.316816e+00 -4.390112e+02
1.254662e+02 3.719837e+01 -4.390112e+02
1.267994e+02 8.935877e+01 1.376468e+02
1.283488e+02 -3.891097e+01 1.877431e+02
1.285430e+02 -5.836002e+01 -4.194934e+02
1.289280e+02 -9.695139e+01 -1.073245e+02
1.290854e+02 8.830222e+01 -4.194977e+02
1.292076e+02 -8.706009e+01 -4.269934e+01
1.293062e+02 2.833186e+01 2.064622e+02
1.293572e+02 -6.365503e+01 -3.251819e+02
1.296225e+02 6.942454e+01 -1.992712e+02
1.301113e+02 7.370702e+01 -2.314519e+02
1.305680e+02 7.778867e+01 -7.497551e+01
1.321216e+02 -5.806458e+01 -2.617037e+02
1.322853e+02 6.263966e+01 1.877464e+02
1.330792e+02 8.645937e+01 -4.269934e+01
1.336422e+02 -4.078384e+00 2.064469e+02
1.340257e+02 9.494469e+01 1.061931e+02
1.349735e+02 -8.514783e+01 -9.801741e+00
1.354756e+02 9.396661e+01 -9.801741e+00
1.362755e+02 1.169542e+01 2.064477e+02
1.366943e+02 -6.393569e+01 -2.314519e+02
1.369709e+02 -8.758866e+01 2.233025e+01
1.378183e+02 9.920598e+01 2.233025e+01
1.388900e+02 -5.198588e+01 -2.930465e+02
1.390212e+02 7.313504e+01 -2.930468e+02
1.392706e+02 4.663289e+01 -1.668543e+02
1.393934e+02 6.478376e+01 -2.617037e+02
1.394912e+02 1.000766e+02 4.866179e+01
1.403320e+02 4.989023e+01 -1.073246e+02
1.406284e+02 8.405968e+01 -3.251905e+02
1.409509e+02 4.630595e+01 1.972664e+02
1.412785e+02 -6.711047e+01 -1.992709e+02
1.413447e+02 -6.980000e+01 -1.668541e+02
1.418163e+02 -8.359668e+01 4.866179e+01
1.426300e+02 -2.564856e+01 1.972643e+02
1.428037e+02 9.817583e+01 7.450951e+01
1.435172e+02 -5.776260e+01 -4.269934e+01
1.436406e+02 -3.649568e+01 -4.194975e+02
1.441474e+02 -6.327242e+01 -3.567111e+02
1.442979e+02 -3.718193e+01 -2.314519e+02
1.445782e+02 9.231665e+01 -3.878733e+02
1.447574e+02 5.576615e+01 -2.314519e+02
1.452317e+02 6.756455e+01 -4.194977e+02
1.457333e+02 -5.859088e+01 1.376467e+02
1.460260e+02 5.168164e+01 -1.992712e+02
1.460444e+02 9.093597e+01 -3.567150e+02
1.460664e+02 -8.120602e+01 7.450951e+01
1.461691e+02 -3.228364e+01 -2.617037e+02
1.472984e+02 -6.474767e+01 -3.878719e+02
1.477587e+02 5.772036e+01 -7.497551e+01
1.477964e+02 -7.352531e+01 1.061931e+02
1.482589e+02 -5.467910e+01 -9.801741e+00
1.488966e+02 4.168436e+01 -2.617037e+02
1.502300e+02 -4.909071e+01 1.628446e+02
1.511241e+02 -4.152437e+01 -1.992712e+02
1.511805e+02 -8.410948e+00 -4.194977e+02
1.512177e+02 4.076031e+01 -4.194977e+02
1.515157e+02 6.644527e+01 -4.269934e+01
1.521983e+02 1.534437e+01 -4.194977e+02
1.524121e+02 3.379674e+01 -2.314519e+02
1.524814e+02 5.123029e+01 -2.930468e+02
1.524960e+02 -2.541116e+01 -2.930468e+02
1.526986e+02 7.692994e+00 -2.314519e+02
1.532770e+02 7.707647e+01 1.628448e+02
1.533446e+02 1.456397e+01 -2.617037e+02
1.539179e+02 -2.503135e+01 -9.801741e+00
1.540315e+02 -5.852898e+01 2.233025e+01
1.540486e+02 -4.446769e+01 -1.668543e+02
1.543524e+02 -4.291339e+01 -1.073246e+02
1.548868e+02 -2.923079e+01 -4.269934e+01
1.550807e+02 -4.399900e+01 -3.251905e+02
1.556480e+02 7.606477e+01 -9.801741e+00
1.560914e+02 2.972997e+01 1.972180e+02
1.562681e+02 2.341046e+01 -2.930468e+02
1.563756e+02 -1.874139e-01 -1.668543e+02
1.566903e+02 6.331829e+01 -3.251905e+02
1.580078e+02 1.738988e+00 -1.073246e+02
1.585925e+02 7.944730e+01 1.376467e+02
1.588731e+02 -8.742764e+00 1.972169e+02
1.598646e+02 -1.357024e+00 -9.801741e+00
1.601113e+02 -2.726816e+01 2.233025e+01
1.603861e+02 8.190020e+01 2.233025e+01
1.604974e+02 5.056216e+01 1.877565e+02
1.606491e+02 -3.206041e+01 1.877570e+02
1.608392e+02 -5.974747e+00 -4.269934e+01
1.609111e+02 2.276680e+01 -9.801741e+00
1.618520e+02 1.707087e+01 -4.269934e+01
1.622044e+02 1.024542e+01 1.972169e+02
1.623693e+02 8.288737e+01 1.061931e+02
1.627043e+02 3.530454e+01 -3.251905e+02
1.629965e+02 -5.430340e+01 4.866179e+01
1.634729e+02 7.039557e+01 -3.567150e+02
1.636946e+02 -1.474211e+01 -3.251905e+02
1.641514e+02 7.309868e+01 -3.878733e+02
1.646772e+02 5.531696e+01 2.233025e+01
1.652010e+02 8.353797e+01 4.866179e+01
1.652501e+02 4.291999e+01 -3.878733e+02
1.652738e+02 2.304127e+01 2.233025e+01
1.661206e+02 -3.528128e+00 2.233025e+01
1.665295e+02 1.676287e+01 -3.878733e+02
1.665643e+02 4.109424e+01 -3.567150e+02
1.666755e+02 1.546476e+01 -3.567150e+02
1.677197e+02 -4.256842e+01 -3.567150e+02
1.683679e+02 -5.178674e+01 7.450951e+01
1.686612e+02 -4.186644e+01 -3.878733e+02
1.698497e+02 -4.616679e+01 1.061931e+02
1.699124e+02 8.149963e+01 7.450951e+01
1.727590e+02 -1.045544e+01 -3.567150e+02
1.740630e+02 -9.539822e+00 -3.878733e+02
1.745914e+02 3.084719e+01 1.877702e+02
1.753541e+02 -4.293690e+01 1.376468e+02
1.762004e+02 -1.218699e+01 1.877705e+02
1.775183e+02 -2.848292e+01 4.866179e+01
1.791009e+02 6.019640e+01 1.628456e+02
1.793970e+02 8.994767e+00 1.877705e+02
1.797173e+02 -3.912767e+01 1.628457e+02
1.800312e+02 5.980761e+01 4.866179e+01
1.830832e+02 6.448270e+01 1.061931e+02
1.835095e+02 6.353569e+01 1.376468e+02
1.844969e+02 -2.296048e+00 4.866179e+01
1.858206e+02 -2.865843e+01 7.450951e+01
1.860121e+02 2.750979e+01 4.866179e+01
1.866498e+02 -2.301289e+01 1.061931e+02
1.874254e+02 6.073407e+01 7.450951e+01
1.909826e+02 3.459471e+01 1.628467e+02
1.923100e+02 -1.866878e+01 1.376469e+02
1.926621e+02 3.364999e+01 1.061931e+02
1.927293e+02 -1.529146e+01 1.628467e+02
1.938193e+02 -1.602187e+00 7.450951e+01
1.945738e+02 8.598642e+00 1.628467e+02
1.948428e+02 3.579822e+01 1.376469e+02
1.954010e+02 2.848319e+01 7.450951e+01
1.967233e+02 7.874321e+00 1.376469e+02
3 473 424 446 
3 546 473 446 
3 616 546 446 
3 650 616 446 
3 653 446 651 
3 446 653 650 
3 613 651 446 
3 574 613 446 
3 508 574 446 
3 448 508 446 
3 448 419 377 
3 446 419 448 
3 302 341 402 
3 302 402 387 
3 387 402 446 
3 402 419 446 
3 341 377 419 
3 341 419 402 
3 262 285 373 
3 262 373 361 
3 361 373 446 
3 373 387 446 
3 285 302 387 
3 285 387 373 
3 237 242 359 
3 237 359 355 
3 355 359 446 
3 359 361 446 
3 242 262 361 
3 242 361 359 
3 238 231 346 
3 238 346 343 
3 343 346 446 
3 346 355 446 
3 231 237 355 
3 231 355 346 
3 284 259 352 
3 284 352 365 
3 365 352 446 
3 352 343 446 
3 259 238 343 
3 259 343 352 
3 365 349 284 
3 349 365 446 
3 424 349 446 
3 509 417 424 
3 509 424 473 
3 628 509 473 
3 628 473 546 
3 682 628 546 
3 682 546 616 
3 709 687 742 
3 687 616 650 
3 616 709 682 
3 709 616 687 
3 750 754 694 
3 750 694 691 
3 691 694 653 
3 691 653 651 
3 694 687 650 
3 694 650 653 
3 754 742 687 
3 754 687 694 
3 691 717 750 
3 717 613 685 
3 613 691 651 
3 691 613 717 
3 631 685 613 
3 631 613 574 
3 530 631 574 
3 530 574 508 
3 445 530 508 
3 445 508 448 
3 324 445 448 
3 324 448 377 
3 341 324 377 
3 230 341 302 
3 324 341 230 
3 215 285 262 
3 285 230 302 
3 230 215 173 
3 215 230 285 
3 133 148 194 
3 133 194 188 
3 188 194 242 
3 188 242 237 
3 194 215 262 
3 194 262 242 
3 148 173 215 
3 148 215 194 
3 231 188 237 
3 188 152 133 
3 152 231 238 
3 231 152 188 
3 259 152 238 
3 198 259 284 
3 152 259 198 
3 291 198 284 
3 291 284 349 
3 417 291 349 
3 417 349 424 
3 545 422 417 
3 545 417 509 
3 660 545 509 
3 660 509 628 
3 697 712 748 
3 712 628 682 
3 628 697 660 
3 697 628 712 
3 844 817 765 
3 844 765 807 
3 807 765 709 
3 807 709 742 
3 765 712 682 
3 765 682 709 
3 817 748 712 
3 817 712 765 
3 846 849 822 
3 846 822 813 
3 813 822 754 
3 813 754 750 
3 822 807 742 
3 822 742 754 
3 849 844 807 
3 849 807 822 
3 737 818 769 
3 737 769 710 
3 710 769 717 
3 710 717 685 
3 769 813 750 
3 769 750 717 
3 818 846 813 
3 818 813 769 
3 710 692 737 
3 692 631 656 
3 631 710 685 
3 710 631 692 
3 623 530 550 
3 631 623 656 
3 530 623 631 
3 423 550 530 
3 423 530 445 
3 266 423 445 
3 266 445 324 
3 206 230 178 
3 324 206 266 
3 230 206 324 
3 128 113 49 
3 113 230 173 
3 230 128 178 
3 128 230 113 
3 23 26 74 
3 23 74 59 
3 59 74 148 
3 59 148 133 
3 74 113 173 
3 74 173 148 
3 26 49 113 
3 26 113 74 
3 59 28 23 
3 28 152 54 
3 152 59 133 
3 59 152 28 
3 121 198 174 
3 152 121 54 
3 198 121 152 
3 204 291 265 
3 198 204 174 
3 291 204 198 
3 422 265 291 
3 422 291 417 
3 481 545 582 
3 422 481 413 
3 545 481 422 
3 673 545 660 
3 582 673 689 
3 545 673 582 
3 812 736 723 
3 812 723 798 
3 798 723 697 
3 798 697 748 
3 723 673 660 
3 723 660 697 
3 736 689 673 
3 736 673 723 
3 865 853 848 
3 865 848 859 
3 859 848 817 
3 859 817 844 
3 848 798 748 
3 848 748 817 
3 853 812 798 
3 853 798 848 
3 860 867 864 
3 860 864 862 
3 862 864 849 
3 862 849 846 
3 864 859 844 
3 864 844 849 
3 867 865 859 
3 867 859 864 
3 778 845 850 
3 778 850 788 
3 788 850 818 
3 788 818 737 
3 850 862 846 
3 850 846 818 
3 845 860 862 
3 845 862 850 
3 674 718 716 
3 674 716 675 
3 675 716 692 
3 675 692 656 
3 716 788 737 
3 716 737 692 
3 718 778 788 
3 718 788 716 
3 542 632 642 
3 542 642 557 
3 557 642 623 
3 557 623 550 
3 642 675 656 
3 642 656 623 
3 632 674 675 
3 632 675 642 
3 557 378 542 
3 423 557 550 
3 378 557 423 
3 221 423 266 
3 378 221 195 
3 423 221 378 
3 95 158 180 
3 95 180 131 
3 131 180 206 
3 131 206 178 
3 180 221 266 
3 180 266 206 
3 158 195 221 
3 158 221 180 
3 11 27 33 
3 11 33 15 
3 15 33 128 
3 15 128 49 
3 33 131 178 
3 33 178 128 
3 27 95 131 
3 27 131 33 
3 2 0 6 
3 2 6 5 
3 5 6 26 
3 5 26 23 
3 6 15 49 
3 6 49 26 
3 0 11 15 
3 0 15 6 
3 22 10 12 
3 22 12 24 
3 24 12 28 
3 24 28 54 
3 12 5 23 
3 12 23 28 
3 10 2 5 
3 10 5 12 
3 137 67 60 
3 137 60 146 
3 146 60 121 
3 146 121 174 
3 60 24 54 
3 60 54 121 
3 67 22 24 
3 67 24 60 
3 226 179 186 
3 226 186 235 
3 235 186 204 
3 235 204 265 
3 186 146 174 
3 186 174 204 
3 179 137 146 
3 179 146 186 
3 235 319 226 
3 319 422 413 
3 422 235 265 
3 235 422 319 
3 599 488 480 
3 599 480 585 
3 585 480 481 
3 585 481 582 
3 480 408 413 
3 480 413 481 
3 488 416 408 
3 488 408 480 
3 696 585 582 
3 696 582 689 
3 585 696 708 
3 585 708 599 
3 841 770 751 
3 841 751 823 
3 823 751 736 
3 823 736 812 
3 751 696 689 
3 751 689 736 
3 770 708 696 
3 770 696 751 
3 866 858 852 
3 866 852 861 
3 861 852 853 
3 861 853 865 
3 852 823 812 
3 852 812 853 
3 858 841 823 
3 858 823 852 
3 863 861 867 
3 863 867 857 
3 863 857 855 
3 857 867 860 
3 867 861 865 
3 861 863 866 
3 781 838 840 
3 781 840 785 
3 785 840 845 
3 785 845 778 
3 840 857 860 
3 840 860 845 
3 838 855 857 
3 838 857 840 
3 678 722 725 
3 678 725 681 
3 681 725 718 
3 681 718 674 
3 725 785 778 
3 725 778 718 
3 722 781 785 
3 722 785 725 
3 534 634 640 
3 534 640 544 
3 544 640 632 
3 544 632 542 
3 640 681 674 
3 640 674 632 
3 634 678 681 
3 634 681 640 
3 544 451 534 
3 451 378 362 
3 378 544 542 
3 544 378 451 
3 189 378 195 
3 362 189 184 
3 378 189 362 
3 83 143 151 
3 83 151 88 
3 88 151 158 
3 88 158 95 
3 151 189 195 
3 151 195 158 
3 143 184 189 
3 143 189 151 
3 30 88 27 
3 30 27 13 
3 30 13 16 
3 13 27 11 
3 27 88 95 
3 88 30 83 
3 3 7 4 
3 3 4 1 
3 1 4 0 
3 1 0 2 
3 4 13 11 
3 4 11 0 
3 7 16 13 
3 7 13 4 
3 20 9 8 
3 20 8 19 
3 19 8 10 
3 19 10 22 
3 8 1 2 
3 8 2 10 
3 9 3 1 
3 9 1 8 
3 117 50 51 
3 117 51 124 
3 124 51 67 
3 124 67 137 
3 51 19 22 
3 51 22 67 
3 50 20 19 
3 50 19 51 
3 124 179 208 
3 208 179 226 
3 179 124 137 
3 124 208 211 
3 124 211 117 
3 416 305 299 
3 416 299 408 
3 408 299 319 
3 408 319 413 
3 299 208 226 
3 299 226 319 
3 305 211 208 
3 305 208 299 
3 488 412 416 
3 590 488 599 
3 412 488 590 
3 707 599 708 
3 590 707 706 
3 599 707 590 
3 816 757 762 
3 816 762 830 
3 830 762 770 
3 830 770 841 
3 762 707 708 
3 762 708 770 
3 757 706 707 
3 757 707 762 
3 832 829 851 
3 832 851 856 
3 856 851 858 
3 856 858 866 
3 851 830 841 
3 851 841 858 
3 829 816 830 
3 829 830 851 
3 815 833 854 
3 815 854 847 
3 847 854 863 
3 847 863 855 
3 854 856 866 
3 854 866 863 
3 833 832 856 
3 833 856 854 
3 756 801 825 
3 756 825 768 
3 768 825 838 
3 768 838 781 
3 825 847 855 
3 825 855 838 
3 801 815 847 
3 801 847 825 
3 768 722 677 
3 677 722 678 
3 722 768 781 
3 768 677 671 
3 768 671 756 
3 532 630 633 
3 532 633 536 
3 536 633 634 
3 536 634 534 
3 633 677 678 
3 633 678 634 
3 630 671 677 
3 630 677 633 
3 370 455 454 
3 370 454 367 
3 367 454 451 
3 367 451 362 
3 454 536 534 
3 454 534 451 
3 455 532 536 
3 455 536 454 
3 367 190 370 
3 184 367 362 
3 190 367 184 
3 143 98 156 
3 156 98 111 
3 98 143 83 
3 143 156 190 
3 143 190 184 
3 39 65 40 
3 39 40 25 
3 25 40 30 
3 25 30 16 
3 40 98 83 
3 40 83 30 
3 65 111 98 
3 65 98 40 
3 31 34 18 
3 31 18 14 
3 14 18 7 
3 14 7 3 
3 18 25 16 
3 18 16 7 
3 34 39 25 
3 34 25 18 
3 32 29 17 
3 32 17 21 
3 21 17 9 
3 21 9 20 
3 17 14 3 
3 17 3 9 
3 29 31 14 
3 29 14 17 
3 119 56 35 
3 119 35 112 
3 112 35 50 
3 112 50 117 
3 35 21 20 
3 35 20 50 
3 56 32 21 
3 56 21 35 
3 112 210 119 
3 211 112 117 
3 210 112 211 
3 305 210 211 
3 412 305 416 
3 210 305 412 
3 485 590 593 
3 412 485 415 
3 590 485 412 
3 705 590 706 
3 593 705 700 
3 590 705 593 
3 792 749 753 
3 792 753 806 
3 806 753 757 
3 806 757 816 
3 753 705 706 
3 753 706 757 
3 749 700 705 
3 749 705 753 
3 806 829 820 
3 820 829 832 
3 829 806 816 
3 806 820 821 
3 806 821 792 
3 804 819 814 
3 804 814 800 
3 800 814 833 
3 800 833 815 
3 814 820 832 
3 814 832 833 
3 819 821 820 
3 819 820 814 
3 741 771 786 
3 741 786 752 
3 752 786 801 
3 752 801 756 
3 786 800 815 
3 786 815 801 
3 771 804 800 
3 771 800 786 
3 752 670 741 
3 671 752 756 
3 670 752 671 
3 540 630 532 
3 630 670 671 
3 670 540 535 
3 540 670 630 
3 372 456 461 
3 372 461 376 
3 376 461 455 
3 376 455 370 
3 461 540 532 
3 461 532 455 
3 456 535 540 
3 456 540 461 
3 191 376 370 
3 191 370 190 
3 376 191 193 
3 376 193 372 
3 129 162 159 
3 129 159 123 
3 123 159 156 
3 123 156 111 
3 159 191 190 
3 159 190 156 
3 162 193 191 
3 162 191 159 
3 78 104 86 
3 78 86 68 
3 68 86 65 
3 68 65 39 
3 86 123 111 
3 86 111 65 
3 104 129 123 
3 104 123 86 
3 52 62 61 
3 52 61 48 
3 48 61 34 
3 48 34 31 
3 61 68 39 
3 61 39 34 
3 62 78 68 
3 62 68 61 
3 48 29 47 
3 47 29 32 
3 29 48 31 
3 48 47 55 
3 48 55 52 
3 130 82 66 
3 130 66 125 
3 125 66 56 
3 125 56 119 
3 66 47 32 
3 66 32 56 
3 82 55 47 
3 82 47 66 
3 125 214 130 
3 210 125 119 
3 214 125 210 
3 307 412 415 
3 210 307 214 
3 412 307 210 
3 595 490 493 
3 595 493 600 
3 600 493 485 
3 600 485 593 
3 493 427 415 
3 493 415 485 
3 490 428 427 
3 490 427 493 
3 699 600 593 
3 699 593 700 
3 600 699 695 
3 600 695 595 
3 763 733 746 
3 763 746 784 
3 784 746 749 
3 784 749 792 
3 746 699 700 
3 746 700 749 
3 733 695 699 
3 733 699 746 
3 784 811 763 
3 821 784 792 
3 811 784 821 
3 819 811 821 
3 803 819 804 
3 811 819 803 
3 771 803 804 
3 739 771 741 
3 803 771 739 
3 667 739 741 
3 667 741 670 
3 539 667 670 
3 539 670 535 
3 456 539 535 
3 383 456 372 
3 539 456 383 
3 199 372 193 
3 383 199 205 
3 372 199 383 
3 141 177 169 
3 141 169 135 
3 135 169 162 
3 135 162 129 
3 169 199 193 
3 169 193 162 
3 177 205 199 
3 177 199 169 
3 104 135 129 
3 135 93 141 
3 93 104 78 
3 104 93 135 
3 62 93 78 
3 77 62 52 
3 93 62 77 
3 73 52 55 
3 77 73 92 
3 52 73 77 
3 150 115 101 
3 150 101 140 
3 140 101 82 
3 140 82 130 
3 101 73 55 
3 101 55 82 
3 115 92 73 
3 115 73 101 
3 225 140 130 
3 225 130 214 
3 140 225 227 
3 140 227 150 
3 428 329 327 
3 428 327 427 
3 427 327 307 
3 427 307 415 
3 327 225 214 
3 327 214 307 
3 329 227 225 
3 329 225 327 
3 591 491 497 
3 591 497 597 
3 597 497 490 
3 597 490 595 
3 497 433 428 
3 497 428 490 
3 491 429 433 
3 491 433 497 
3 597 690 591 
3 695 597 595 
3 690 597 695 
3 729 733 763 
3 729 763 760 
3 733 729 690 
3 733 690 695 
3 809 760 763 
3 809 763 811 
3 802 809 811 
3 802 811 803 
3 767 739 732 
3 803 767 802 
3 739 767 803 
3 664 732 739 
3 664 739 667 
3 547 664 667 
3 547 667 539 
3 393 547 539 
3 393 539 383 
3 297 205 220 
3 383 297 393 
3 205 297 383 
3 177 220 205 
3 155 177 141 
3 220 177 155 
3 107 155 141 
3 107 141 93 
3 80 107 93 
3 80 93 77 
3 108 80 77 
3 108 77 92 
3 115 108 92 
3 157 115 150 
3 108 115 157 
3 234 150 227 
3 157 234 232 
3 150 234 157 
3 429 335 336 
3 429 336 433 
3 433 336 329 
3 433 329 428 
3 336 234 227 
3 336 227 329 
3 335 232 234 
3 335 234 336 
3 605 520 510 
3 605 510 602 
3 602 510 491 
3 602 491 591 
3 510 436 429 
3 510 429 491 
3 520 444 436 
3 520 436 510 
3 698 602 591 
3 698 591 690 
3 602 698 703 
3 602 703 605 
3 776 745 744 
3 776 744 779 
3 779 744 729 
3 779 729 760 
3 744 698 690 
3 744 690 729 
3 745 703 698 
3 745 698 744 
3 779 794 776 
3 794 809 797 
3 809 779 760 
3 779 809 794 
3 789 809 802 
3 797 789 774 
3 809 789 797 
3 724 755 766 
3 724 766 731 
3 731 766 767 
3 731 767 732 
3 766 789 802 
3 766 802 767 
3 755 774 789 
3 755 789 766 
3 731 662 724 
3 664 731 732 
3 662 731 664 
3 625 547 533 
3 664 625 662 
3 547 625 664 
3 386 547 393 
3 533 386 381 
3 547 386 533 
3 216 289 293 
3 216 293 218 
3 218 293 297 
3 218 297 220 
3 293 386 393 
3 293 393 297 
3 289 381 386 
3 289 386 293 
3 218 181 216 
3 181 155 153 
3 155 218 220 
3 218 155 181 
3 132 107 114 
3 155 132 153 
3 107 132 155 
3 99 80 84 
3 107 99 114 
3 80 99 107 
3 87 108 106 
3 80 87 84 
3 108 87 80 
3 164 106 108 
3 164 108 157 
3 251 157 232 
3 164 251 264 
3 157 251 164 
3 444 363 350 
3 444 350 436 
3 436 350 335 
3 436 335 429 
3 350 251 232 
3 350 232 335 
3 363 264 251 
3 363 251 350 
3 583 483 498 
3 583 498 587 
3 587 498 520 
3 587 520 605 
3 498 435 444 
3 498 444 520 
3 483 425 435 
3 483 435 498 
3 688 587 605 
3 688 605 703 
3 587 688 686 
3 587 686 583 
3 759 726 728 
3 759 728 761 
3 761 728 745 
3 761 745 776 
3 728 688 703 
3 728 703 745 
3 726 686 688 
3 726 688 728 
3 808 795 787 
3 808 787 799 
3 799 787 794 
3 799 794 797 
3 787 761 776 
3 787 776 794 
3 795 759 761 
3 795 761 787 
3 782 799 797 
3 782 797 774 
3 799 782 796 
3 799 796 808 
3 713 758 747 
3 713 747 711 
3 711 747 755 
3 711 755 724 
3 747 782 774 
3 747 774 755 
3 758 796 782 
3 758 782 747 
3 661 711 724 
3 661 724 662 
3 711 661 658 
3 711 658 713 
3 548 629 627 
3 548 627 541 
3 541 627 625 
3 541 625 533 
3 627 661 662 
3 627 662 625 
3 629 658 661 
3 629 661 627 
3 398 541 533 
3 398 533 381 
3 541 398 399 
3 541 399 548 
3 239 306 300 
3 239 300 229 
3 229 300 289 
3 229 289 216 
3 300 398 381 
3 300 381 289 
3 306 399 398 
3 306 398 300 
3 167 192 187 
3 167 187 168 
3 168 187 181 
3 168 181 153 
3 187 229 216 
3 187 216 181 
3 192 239 229 
3 192 229 187 
3 102 134 145 
3 102 145 127 
3 127 145 132 
3 127 132 114 
3 145 168 153 
3 145 153 132 
3 134 167 168 
3 134 168 145 
3 79 85 103 
3 79 103 90 
3 90 103 99 
3 90 99 84 
3 103 127 114 
3 103 114 99 
3 85 102 127 
3 85 127 103 
3 96 81 97 
3 96 97 110 
3 110 97 87 
3 110 87 106 
3 97 90 84 
3 97 84 87 
3 81 79 90 
3 81 90 97 
3 110 126 96 
3 126 164 154 
3 164 110 106 
3 110 164 126 
3 257 164 264 
3 154 257 236 
3 164 257 154 
3 425 333 353 
3 425 353 435 
3 435 353 363 
3 435 363 444 
3 353 257 264 
3 353 264 363 
3 333 236 257 
3 333 257 353 
3 483 403 425 
3 563 483 583 
3 403 483 563 
3 643 676 683 
3 676 583 686 
3 583 643 563 
3 643 583 676 
3 780 727 720 
3 780 720 764 
3 764 720 726 
3 764 726 759 
3 720 676 686 
3 720 686 726 
3 727 683 676 
3 727 676 720 
3 835 826 810 
3 835 810 824 
3 824 810 795 
3 824 795 808 
3 810 764 759 
3 810 759 795 
3 826 780 764 
3 826 764 810 
3 827 836 824 
3 824 836 835 
3 836 827 842 
3 827 824 808 
3 827 808 796 
3 773 837 805 
3 773 805 743 
3 743 805 758 
3 743 758 713 
3 805 827 796 
3 805 796 758 
3 837 842 827 
3 837 827 805 
3 659 714 743 
3 743 714 773 
3 714 659 663 
3 659 743 713 
3 659 713 658 
3 561 641 636 
3 561 636 556 
3 556 636 629 
3 556 629 548 
3 636 659 658 
3 636 658 629 
3 641 663 659 
3 641 659 636 
3 556 392 561 
3 399 556 548 
3 392 556 399 
3 306 392 399 
3 219 306 239 
3 392 306 219 
3 192 149 172 
3 172 149 120 
3 149 192 167 
3 192 172 219 
3 192 219 239 
3 45 71 109 
3 45 109 72 
3 72 109 134 
3 72 134 102 
3 109 149 167 
3 109 167 134 
3 71 120 149 
3 71 149 109 
3 44 72 85 
3 44 85 58 
3 44 58 43 
3 58 85 79 
3 85 72 102 
3 72 44 45 
3 53 36 57 
3 53 57 69 
3 69 57 81 
3 69 81 96 
3 57 58 79 
3 57 79 81 
3 36 43 58 
3 36 58 57 
3 139 94 105 
3 139 105 142 
3 142 105 126 
3 142 126 154 
3 105 69 96 
3 105 96 126 
3 94 53 69 
3 94 69 105 
3 142 213 139 
3 236 142 154 
3 213 142 236 
3 333 213 236 
3 403 333 425 
3 213 333 403 
3 552 403 563 
3 388 552 523 
3 403 552 388 
3 652 601 637 
3 652 637 669 
3 669 637 643 
3 669 643 683 
3 637 552 563 
3 637 563 643 
3 601 523 552 
3 601 552 637 
3 740 693 715 
3 740 715 775 
3 775 715 727 
3 775 727 780 
3 715 669 683 
3 715 683 727 
3 693 652 669 
3 693 669 715 
3 791 777 828 
3 791 828 831 
3 831 828 826 
3 831 826 835 
3 828 775 780 
3 828 780 826 
3 777 740 775 
3 777 775 828 
3 790 793 834 
3 790 834 843 
3 843 834 836 
3 843 836 842 
3 834 831 835 
3 834 835 836 
3 793 791 831 
3 793 831 834 
3 738 772 839 
3 738 839 783 
3 783 839 837 
3 783 837 773 
3 839 843 842 
3 839 842 837 
3 772 790 843 
3 772 843 839 
3 655 702 730 
3 655 730 672 
3 672 730 714 
3 672 714 663 
3 730 783 773 
3 730 773 714 
3 702 738 783 
3 702 783 730 
3 537 615 638 
3 537 638 560 
3 560 638 641 
3 560 641 561 
3 638 672 663 
3 638 663 641 
3 615 655 672 
3 615 672 638 
3 560 401 537 
3 392 560 561 
3 401 560 392 
3 217 392 219 
3 401 217 233 
3 392 217 401 
3 144 182 170 
3 144 170 118 
3 118 170 172 
3 118 172 120 
3 170 217 219 
3 170 219 172 
3 182 233 217 
3 182 217 170 
3 91 116 75 
3 91 75 41 
3 41 75 71 
3 41 71 45 
3 75 118 120 
3 75 120 71 
3 116 144 118 
3 116 118 75 
3 64 76 38 
3 64 38 46 
3 46 38 44 
3 46 44 43 
3 38 41 45 
3 38 45 44 
3 76 91 41 
3 76 41 38 
3 70 63 37 
3 70 37 42 
3 42 37 36 
3 42 36 53 
3 37 46 43 
3 37 43 36 
3 63 64 46 
3 63 46 37 
3 147 100 89 
3 147 89 138 
3 138 89 94 
3 138 94 139 
3 89 42 53 
3 89 53 94 
3 100 70 42 
3 100 42 89 
3 138 224 147 
3 213 138 139 
3 224 138 213 
3 388 224 213 
3 388 213 403 
3 439 523 476 
3 388 439 385 
3 523 439 388 
3 529 601 652 
3 529 652 606 
3 601 529 476 
3 601 476 523 
3 693 704 645 
3 645 704 654 
3 704 693 740 
3 693 645 606 
3 693 606 652 
3 680 666 721 
3 680 721 735 
3 735 721 777 
3 735 777 791 
3 721 704 740 
3 721 740 777 
3 666 654 704 
3 666 704 721 
3 684 735 793 
3 684 793 734 
3 684 734 679 
3 734 793 790 
3 793 735 791 
3 735 684 680 
3 657 665 719 
3 657 719 701 
3 701 719 772 
3 701 772 738 
3 719 734 790 
3 719 790 772 
3 665 679 734 
3 665 734 719 
3 622 649 668 
3 622 668 648 
3 648 668 702 
3 648 702 655 
3 668 701 738 
3 668 738 702 
3 649 657 701 
3 649 701 668 
3 506 581 594 
3 506 594 527 
3 527 594 615 
3 527 615 537 
3 594 648 655 
3 594 655 615 
3 581 622 648 
3 581 648 594 
3 527 459 506 
3 459 401 405 
3 401 527 537 
3 527 401 459 
3 340 256 282 
3 256 401 233 
3 401 340 405 
3 340 401 256 
3 196 228 197 
3 196 197 171 
3 171 197 182 
3 171 182 144 
3 197 256 233 
3 197 233 182 
3 228 282 256 
3 228 256 197 
3 183 171 116 
3 116 171 144 
3 171 183 196 
3 183 116 91 
3 183 91 176 
3 166 76 64 
3 166 64 160 
3 76 166 176 
3 76 176 91 
3 63 122 161 
3 161 122 165 
3 122 63 70 
3 63 161 160 
3 63 160 64 
3 185 175 136 
3 185 136 163 
3 163 136 100 
3 163 100 147 
3 136 122 70 
3 136 70 100 
3 175 165 122 
3 175 122 136 
3 163 212 185 
3 212 224 261 
3 224 163 147 
3 163 224 212 
3 322 388 385 
3 224 322 261 
3 388 322 224 
3 464 472 475 
3 443 464 449 
3 472 464 443 
3 472 443 439 
3 472 439 476 
3 443 396 385 
3 443 385 439 
3 434 443 449 
3 396 434 411 
3 443 434 396 
3 538 584 555 
3 526 538 525 
3 584 538 526 
3 584 526 529 
3 584 529 606 
3 526 472 476 
3 526 476 529 
3 494 526 525 
3 472 494 475 
3 526 494 472 
3 596 626 603 
3 611 596 588 
3 626 596 611 
3 626 611 645 
3 626 645 654 
3 611 584 606 
3 611 606 645 
3 576 611 588 
3 584 576 555 
3 611 576 584 
3 617 646 619 
3 639 617 612 
3 646 617 639 
3 646 639 666 
3 646 666 680 
3 639 626 654 
3 639 654 666 
3 608 639 612 
3 626 608 603 
3 639 608 626 
3 618 644 614 
3 647 618 620 
3 644 618 647 
3 644 647 684 
3 644 684 679 
3 647 646 680 
3 647 680 684 
3 621 647 620 
3 646 621 619 
3 647 621 646 
3 604 624 598 
3 635 604 607 
3 624 604 635 
3 624 635 665 
3 624 665 657 
3 635 644 679 
3 635 679 665 
3 609 635 607 
3 644 609 614 
3 635 609 644 
3 579 589 566 
3 610 579 586 
3 589 579 610 
3 589 610 649 
3 589 649 622 
3 610 624 657 
3 610 657 649 
3 592 610 586 
3 624 592 598 
3 610 592 624 
3 524 492 487 
3 554 524 543 
3 492 524 554 
3 492 554 581 
3 492 581 506 
3 554 589 622 
3 554 622 581 
3 558 554 543 
3 589 558 566 
3 554 558 589 
3 440 414 421 
3 457 440 458 
3 414 440 457 
3 414 457 459 
3 414 459 405 
3 457 492 506 
3 457 506 459 
3 471 457 458 
3 492 471 487 
3 457 471 492 
3 364 308 344 
3 360 364 379 
3 308 364 360 
3 308 360 340 
3 308 340 282 
3 360 414 405 
3 360 405 340 
3 397 360 379 
3 414 397 421 
3 360 397 414 
3 294 247 281 
3 275 294 301 
3 247 294 275 
3 247 275 228 
3 247 228 196 
3 275 308 282 
3 275 282 228 
3 326 275 301 
3 308 326 344 
3 275 326 308 
3 258 209 253 
3 223 258 263 
3 209 258 223 
3 209 223 183 
3 209 183 176 
3 223 247 196 
3 223 196 183 
3 267 223 263 
3 247 267 281 
3 223 267 247 
3 241 200 240 
3 203 241 245 
3 200 241 203 
3 200 203 166 
3 200 166 160 
3 203 209 176 
3 203 176 166 
3 249 203 245 
3 209 249 253 
3 203 249 209 
3 246 202 248 
3 201 246 244 
3 202 246 201 
3 202 201 161 
3 202 161 165 
3 201 200 160 
3 201 160 161 
3 243 201 244 
3 200 243 240 
3 201 243 200 
3 255 222 260 
3 207 255 252 
3 222 255 207 
3 222 207 175 
3 222 175 185 
3 207 202 165 
3 207 165 175 
3 250 207 252 
3 202 250 248 
3 207 250 202 
3 298 290 317 
3 254 298 287 
3 290 298 254 
3 290 254 212 
3 290 212 261 
3 254 222 185 
3 254 185 212 
3 269 254 287 
3 222 269 260 
3 254 269 222 
3 389 396 411 
3 348 389 368 
3 396 389 348 
3 396 348 322 
3 396 322 385 
3 348 290 261 
3 348 261 322 
3 345 348 368 
3 290 345 317 
3 348 345 290 
3 437 409 431 
3 409 437 447 
3 447 437 453 
3 447 453 466 
3 466 453 464 
3 466 464 475 
3 453 442 449 
3 453 449 464 
3 437 431 442 
3 437 442 453 
3 431 418 430 
3 431 430 442 
3 442 430 434 
3 442 434 449 
3 430 406 411 
3 430 411 434 
3 418 404 406 
3 418 406 430 
3 418 409 404 
3 409 418 431 
3 465 409 463 
3 409 465 467 
3 467 465 489 
3 467 489 504 
3 504 489 538 
3 504 538 555 
3 489 482 525 
3 489 525 538 
3 465 463 482 
3 465 482 489 
3 463 460 477 
3 463 477 482 
3 482 477 494 
3 482 494 525 
3 477 466 475 
3 477 475 494 
3 460 447 466 
3 460 466 477 
3 460 409 447 
3 409 460 463 
3 486 409 479 
3 409 486 503 
3 503 486 551 
3 503 551 562 
3 562 551 596 
3 562 596 603 
3 551 528 588 
3 551 588 596 
3 486 479 528 
3 486 528 551 
3 479 470 521 
3 479 521 528 
3 528 521 576 
3 528 576 588 
3 521 504 555 
3 521 555 576 
3 470 467 504 
3 470 504 521 
3 470 409 467 
3 409 470 479 
3 513 409 517 
3 409 513 505 
3 505 513 578 
3 505 578 575 
3 575 578 617 
3 575 617 619 
3 578 580 612 
3 578 612 617 
3 513 517 580 
3 513 580 578 
3 517 514 577 
3 517 577 580 
3 580 577 608 
3 580 608 612 
3 577 562 603 
3 577 603 608 
3 514 503 562 
3 514 562 577 
3 514 409 503 
3 409 514 517 
3 502 409 499 
3 409 502 507 
3 507 502 567 
3 507 567 570 
3 570 567 618 
3 570 618 614 
3 567 565 620 
3 567 620 618 
3 502 499 565 
3 502 565 567 
3 499 500 568 
3 499 568 565 
3 565 568 621 
3 565 621 620 
3 568 575 619 
3 568 619 621 
3 500 505 575 
3 500 575 568 
3 500 409 505 
3 409 500 499 
3 518 409 515 
3 409 518 519 
3 519 518 572 
3 519 572 571 
3 571 572 604 
3 571 604 598 
3 572 569 607 
3 572 607 604 
3 518 515 569 
3 518 569 572 
3 515 512 573 
3 515 573 569 
3 569 573 609 
3 569 609 607 
3 573 570 614 
3 573 614 609 
3 512 507 570 
3 512 570 573 
3 512 409 507 
3 409 512 515 
3 501 409 511 
3 409 501 495 
3 495 501 553 
3 495 553 549 
3 549 553 579 
3 549 579 566 
3 553 559 586 
3 553 586 579 
3 501 511 559 
3 501 559 553 
3 511 516 564 
3 511 564 559 
3 559 564 592 
3 559 592 586 
3 564 571 598 
3 564 598 592 
3 516 519 571 
3 516 571 564 
3 516 409 519 
3 409 516 511 
3 469 409 474 
3 409 469 462 
3 462 469 496 
3 462 496 478 
3 478 496 524 
3 478 524 487 
3 496 522 543 
3 496 543 524 
3 469 474 522 
3 469 522 496 
3 474 484 531 
3 474 531 522 
3 522 531 558 
3 522 558 543 
3 531 549 566 
3 531 566 558 
3 484 495 549 
3 484 549 531 
3 484 409 495 
3 409 484 474 
3 432 409 441 
3 409 432 420 
3 420 432 438 
3 420 438 426 
3 426 438 440 
3 426 440 421 
3 438 452 458 
3 438 458 440 
3 432 441 452 
3 432 452 438 
3 441 450 468 
3 441 468 452 
3 452 468 471 
3 452 471 458 
3 468 478 487 
3 468 487 471 
3 450 462 478 
3 450 478 468 
3 450 409 462 
3 409 450 441 
3 395 409 400 
3 409 395 384 
3 384 395 380 
3 384 380 369 
3 369 380 364 
3 369 364 344 
3 380 394 379 
3 380 379 364 
3 395 400 394 
3 395 394 380 
3 400 410 407 
3 400 407 394 
3 394 407 397 
3 394 397 379 
3 407 426 421 
3 407 421 397 
3 410 420 426 
3 410 426 407 
3 410 409 420 
3 409 410 400 
3 356 409 366 
3 409 356 347 
3 347 356 325 
3 347 325 304 
3 304 325 294 
3 304 294 281 
3 325 337 301 
3 325 301 294 
3 356 366 337 
3 356 337 325 
3 366 375 354 
3 366 354 337 
3 337 354 326 
3 337 326 301 
3 354 369 344 
3 354 344 326 
3 375 384 369 
3 375 369 354 
3 375 409 384 
3 409 375 366 
3 330 409 332 
3 409 330 323 
3 323 330 286 
3 323 286 280 
3 280 286 258 
3 280 258 253 
3 286 292 263 
3 286 263 258 
3 330 332 292 
3 330 292 286 
3 332 339 296 
3 332 296 292 
3 292 296 267 
3 292 267 263 
3 296 304 281 
3 296 281 267 
3 339 347 304 
3 339 304 296 
3 339 409 347 
3 409 339 332 
3 309 409 311 
3 409 309 310 
3 310 309 268 
3 310 268 270 
3 270 268 241 
3 270 241 240 
3 268 272 245 
3 268 245 241 
3 309 311 272 
3 309 272 268 
3 311 315 277 
3 311 277 272 
3 272 277 249 
3 272 249 245 
3 277 280 253 
3 277 253 249 
3 315 323 280 
3 315 280 277 
3 315 409 323 
3 409 315 311 
3 314 409 313 
3 409 314 316 
3 316 314 274 
3 316 274 276 
3 276 274 246 
3 276 246 248 
3 274 273 244 
3 274 244 246 
3 314 313 273 
3 314 273 274 
3 313 312 271 
3 313 271 273 
3 273 271 243 
3 273 243 244 
3 271 270 240 
3 271 240 243 
3 312 310 270 
3 312 270 271 
3 312 409 310 
3 409 312 313 
3 328 409 320 
3 409 328 331 
3 331 328 283 
3 331 283 288 
3 288 283 255 
3 288 255 260 
3 283 279 252 
3 283 252 255 
3 328 320 279 
3 328 279 283 
3 320 318 278 
3 320 278 279 
3 279 278 250 
3 279 250 252 
3 278 276 248 
3 278 248 250 
3 318 316 276 
3 318 276 278 
3 318 409 316 
3 409 318 320 
3 351 409 342 
3 409 351 358 
3 358 351 321 
3 358 321 338 
3 338 321 298 
3 338 298 317 
3 321 303 287 
3 321 287 298 
3 351 342 303 
3 351 303 321 
3 342 334 295 
3 342 295 303 
3 303 295 269 
3 303 269 287 
3 295 288 260 
3 295 260 269 
3 334 331 288 
3 334 288 295 
3 334 409 331 
3 409 334 342 
3 391 409 382 
3 409 391 404 
3 404 391 390 
3 404 390 406 
3 406 390 389 
3 406 389 411 
3 390 374 368 
3 390 368 389 
3 391 382 374 
3 391 374 390 
3 382 371 357 
3 382 357 374 
3 374 357 345 
3 374 345 368 
3 357 338 317 
3 357 317 345 
3 371 358 338 
3 371 338 357 
3 371 409 358 
3 409 371 382 

